<svg version="1.0" xmlns="http://www.w3.org/2000/svg" width="188" height="188" viewBox="0 0 141 141"><path d="M57.8 22.2c-7.1 1.9-10 7.8-6.9 13.6 1.7 3.1 1.4 3.7-2.5 5.6-4.7 2.2-14 9.4-18.2 14L26.9 59l-3.7-2.9C12.9 47.8 4.5 49 1.5 59.3c-1.8 6.3-1.4 18.6.8 23.9 3.4 8 12.2 8.1 21.6.2l3.2-2.7 3 3.6c3.7 4.5 12.9 11.6 18.7 14.6 4 2 4.3 2.4 2.9 3.9-5.2 5.9-1.5 13.2 7.9 15.3 9.8 2.2 25.4-1.6 34.6-8.4 1.8-1.3 6.6-3.1 10.7-4.1 22.2-5.2 36.3-19.7 35.7-36.8-.3-6.4-3.1-13.8-7.2-18.7-5.9-7.1-21.5-15.1-32.7-16.8-1.8-.3-4.7-1.6-6.5-3-9.6-7.2-26.1-10.9-36.4-8.1z"/></svg>